<svg width="166" height="21" viewBox="0 0 166 21" fill="none" xmlns="http://www.w3.org/2000/svg">
<path d="M4.196 19H0.464V1.3H6.524C7.876 1.3 9.032 1.564 9.992 2.092C10.96 2.612 11.696 3.32 12.2 4.216C12.712 5.104 12.968 6.108 12.968 7.228C12.968 8.34 12.708 9.36 12.188 10.288C11.676 11.208 10.94 11.948 9.98 12.508C9.02 13.06 7.868 13.336 6.524 13.336H4.196V19ZM4.196 12.184L2.516 10.456H6.128C6.752 10.456 7.296 10.332 7.76 10.084C8.224 9.828 8.584 9.46 8.84 8.98C9.096 8.492 9.224 7.908 9.224 7.228C9.224 6.54 9.096 5.972 8.84 5.524C8.592 5.068 8.236 4.732 7.772 4.516C7.316 4.292 6.768 4.18 6.128 4.18H2.516L4.196 2.404V12.184ZM15.3866 13.744V11.284H23.8346L23.4746 11.908C23.4746 11.844 23.4746 11.784 23.4746 11.728C23.4746 11.664 23.4746 11.604 23.4746 11.548C23.4746 11.092 23.3666 10.656 23.1506 10.24C22.9346 9.816 22.5986 9.472 22.1426 9.208C21.6946 8.936 21.1186 8.8 20.4146 8.8C19.7106 8.8 19.1026 8.952 18.5906 9.256C18.0866 9.552 17.6986 9.98 17.4266 10.54C17.1626 11.1 17.0306 11.776 17.0306 12.568C17.0306 13.384 17.1586 14.084 17.4146 14.668C17.6786 15.244 18.0666 15.688 18.5786 16C19.0986 16.312 19.7426 16.468 20.5106 16.468C21.0066 16.468 21.4346 16.424 21.7946 16.336C22.1546 16.24 22.4466 16.12 22.6706 15.976C22.9026 15.832 23.0786 15.672 23.1986 15.496C23.3186 15.32 23.3906 15.148 23.4146 14.98H27.0866C27.0386 15.516 26.8546 16.044 26.5346 16.564C26.2146 17.076 25.7706 17.54 25.2026 17.956C24.6346 18.364 23.9426 18.688 23.1266 18.928C22.3186 19.168 21.3946 19.288 20.3546 19.288C18.9466 19.288 17.7186 19.008 16.6706 18.448C15.6226 17.88 14.8106 17.1 14.2346 16.108C13.6586 15.108 13.3706 13.956 13.3706 12.652C13.3706 11.332 13.6626 10.176 14.2466 9.184C14.8386 8.184 15.6586 7.408 16.7066 6.856C17.7626 6.296 18.9826 6.016 20.3666 6.016C21.7826 6.016 23.0066 6.3 24.0386 6.868C25.0706 7.428 25.8666 8.216 26.4266 9.232C26.9866 10.24 27.2666 11.416 27.2666 12.76C27.2666 12.96 27.2626 13.152 27.2546 13.336C27.2466 13.52 27.2346 13.656 27.2186 13.744H15.3866ZM28.8714 19V6.256H32.6034V10.648L31.8354 10.168C31.9234 9.568 32.0834 9.016 32.3154 8.512C32.5474 8.008 32.8474 7.572 33.2154 7.204C33.5834 6.828 34.0194 6.536 34.5234 6.328C35.0354 6.12 35.6194 6.016 36.2754 6.016C36.7874 6.016 37.1874 6.056 37.4754 6.136C37.7714 6.208 37.9554 6.264 38.0274 6.304L37.4154 9.64C37.3434 9.6 37.1834 9.536 36.9354 9.448C36.6874 9.36 36.3674 9.316 35.9754 9.316C35.3354 9.316 34.7994 9.424 34.3674 9.64C33.9354 9.856 33.5874 10.144 33.3234 10.504C33.0674 10.856 32.8834 11.248 32.7714 11.68C32.6594 12.112 32.6034 12.548 32.6034 12.988V19H28.8714ZM40.7384 19V9.136H38.0864V6.256H40.7384V5.38C40.7384 4.532 40.8504 3.808 41.0744 3.208C41.3064 2.6 41.6184 2.096 42.0104 1.696C42.4024 1.288 42.8424 0.967999 43.3304 0.735999C43.8264 0.495999 44.3344 0.327999 44.8544 0.231998C45.3824 0.127999 45.8944 0.0759997 46.3904 0.0759997C46.9184 0.0759997 47.3104 0.107999 47.5664 0.171999C47.8304 0.227999 48.0064 0.276 48.0944 0.316V3.208C47.9984 3.176 47.8264 3.14 47.5784 3.1C47.3384 3.06 47.0784 3.04 46.7984 3.04C46.3344 3.04 45.9504 3.1 45.6464 3.22C45.3424 3.34 45.1024 3.516 44.9264 3.748C44.7504 3.972 44.6264 4.24 44.5544 4.552C44.4824 4.856 44.4464 5.188 44.4464 5.548V6.256H47.8664V9.136H44.4464V19H40.7384ZM49.6184 19V6.256H53.3024V19H49.6184ZM51.4544 4.18C50.8784 4.18 50.3744 4.028 49.9424 3.724C49.5184 3.42 49.3064 2.992 49.3064 2.44C49.3064 1.88 49.5184 1.448 49.9424 1.144C50.3744 0.84 50.8784 0.688 51.4544 0.688C52.0384 0.688 52.5424 0.84 52.9664 1.144C53.3984 1.448 53.6144 1.88 53.6144 2.44C53.6144 3 53.3984 3.432 52.9664 3.736C52.5424 4.032 52.0384 4.18 51.4544 4.18ZM59.1974 0.243999V19H55.5254V0.243999H59.1974Z" fill="#00113D"/>
<path d="M75.3058 0.243999L68.6218 20.86H65.6218L72.3058 0.243999H75.3058Z" fill="#F43724"/>
<path d="M81.32 19L86.348 1.24H88.64L93.632 19H92.084L87.476 2.26H87.5L82.868 19H81.32ZM83.624 14.068V12.76H91.364V14.068H83.624ZM94.2297 12.688V11.728H102.462V12.688H94.2297ZM110.577 1.3C111.625 1.3 112.525 1.444 113.277 1.732C114.037 2.012 114.621 2.464 115.029 3.088C115.437 3.704 115.641 4.504 115.641 5.488C115.641 6.408 115.449 7.176 115.065 7.792C114.689 8.408 114.201 8.872 113.601 9.184C113.009 9.496 112.385 9.664 111.729 9.688C112.449 9.704 113.133 9.864 113.781 10.168C114.437 10.464 114.973 10.936 115.389 11.584C115.805 12.224 116.013 13.076 116.013 14.14C116.013 15.196 115.801 16.088 115.377 16.816C114.953 17.536 114.329 18.08 113.505 18.448C112.689 18.816 111.673 19 110.457 19H105.069V1.3H110.577ZM106.521 9.604L106.005 9.088H109.677C111.069 9.088 112.161 8.812 112.953 8.26C113.745 7.7 114.141 6.844 114.141 5.692C114.141 4.916 113.977 4.304 113.649 3.856C113.321 3.408 112.861 3.088 112.269 2.896C111.685 2.704 111.009 2.608 110.241 2.608H105.849L106.521 1.78V9.604ZM110.181 17.692C111.493 17.692 112.537 17.4 113.313 16.816C114.097 16.232 114.489 15.316 114.489 14.068C114.489 13.324 114.357 12.716 114.093 12.244C113.837 11.764 113.485 11.392 113.037 11.128C112.589 10.856 112.081 10.668 111.513 10.564C110.945 10.452 110.357 10.396 109.749 10.396H106.005L106.521 9.892V18.52L105.849 17.692H110.181ZM124.764 19.216C123.516 19.216 122.412 18.932 121.452 18.364C120.492 17.788 119.74 17 119.196 16C118.652 15 118.38 13.872 118.38 12.616C118.38 11.352 118.652 10.228 119.196 9.244C119.74 8.26 120.492 7.488 121.452 6.928C122.412 6.368 123.516 6.088 124.764 6.088C126.012 6.088 127.116 6.368 128.076 6.928C129.036 7.488 129.788 8.26 130.332 9.244C130.876 10.228 131.148 11.352 131.148 12.616C131.148 13.872 130.876 15 130.332 16C129.788 17 129.036 17.788 128.076 18.364C127.116 18.932 126.012 19.216 124.764 19.216ZM124.764 17.86C125.724 17.86 126.568 17.636 127.296 17.188C128.032 16.74 128.608 16.12 129.024 15.328C129.44 14.536 129.648 13.632 129.648 12.616C129.648 11.592 129.44 10.692 129.024 9.916C128.608 9.14 128.032 8.536 127.296 8.104C126.568 7.664 125.724 7.444 124.764 7.444C123.812 7.444 122.968 7.664 122.232 8.104C121.496 8.536 120.92 9.14 120.504 9.916C120.088 10.692 119.88 11.592 119.88 12.616C119.88 13.632 120.088 14.536 120.504 15.328C120.92 16.12 121.496 16.74 122.232 17.188C122.968 17.636 123.812 17.86 124.764 17.86ZM141.739 19V13.144C141.739 12.64 141.739 12.204 141.739 11.836C141.739 11.46 141.739 11.148 141.739 10.9C141.739 10.588 141.715 10.24 141.667 9.856C141.619 9.464 141.507 9.088 141.331 8.728C141.163 8.368 140.895 8.072 140.527 7.84C140.159 7.6 139.651 7.48 139.003 7.48C138.323 7.48 137.755 7.616 137.299 7.888C136.843 8.152 136.475 8.496 136.195 8.92C135.923 9.344 135.727 9.796 135.607 10.276C135.487 10.756 135.427 11.208 135.427 11.632L134.539 11.284C134.539 10.364 134.731 9.512 135.115 8.728C135.499 7.936 136.043 7.296 136.747 6.808C137.459 6.32 138.303 6.076 139.279 6.076C140.215 6.076 140.971 6.264 141.547 6.64C142.123 7.008 142.543 7.528 142.807 8.2C143.079 8.864 143.215 9.644 143.215 10.54C143.215 10.852 143.215 11.244 143.215 11.716C143.215 12.188 143.215 12.716 143.215 13.3V19H141.739ZM133.939 19V6.256H135.427V19H133.939ZM149.515 19V13.132C149.515 12.572 149.515 12.116 149.515 11.764C149.515 11.404 149.515 11.096 149.515 10.84C149.515 10.536 149.495 10.196 149.455 9.82C149.415 9.436 149.307 9.068 149.131 8.716C148.963 8.364 148.687 8.072 148.303 7.84C147.927 7.6 147.399 7.48 146.719 7.48C146.039 7.48 145.471 7.612 145.015 7.876C144.559 8.14 144.199 8.48 143.935 8.896C143.671 9.304 143.483 9.736 143.371 10.192C143.267 10.64 143.215 11.048 143.215 11.416L142.327 11.092C142.327 10.236 142.511 9.428 142.879 8.668C143.255 7.9 143.791 7.276 144.487 6.796C145.183 6.316 146.023 6.076 147.007 6.076C147.887 6.076 148.619 6.244 149.203 6.58C149.795 6.916 150.239 7.396 150.535 8.02C150.839 8.644 150.991 9.404 150.991 10.3C150.991 10.62 150.991 11.016 150.991 11.488C150.991 11.96 150.991 12.48 150.991 13.048V19H149.515ZM160.122 19.228C159.146 19.228 158.242 18.992 157.41 18.52C156.578 18.048 155.906 17.408 155.394 16.6C154.89 15.792 154.638 14.884 154.638 13.876C154.638 13.852 154.638 13.832 154.638 13.816C154.638 13.8 154.638 13.784 154.638 13.768L155.742 13.744C155.742 13.76 155.742 13.776 155.742 13.792C155.742 13.808 155.742 13.824 155.742 13.84C155.742 14.56 155.934 15.224 156.318 15.832C156.71 16.44 157.222 16.924 157.854 17.284C158.494 17.644 159.186 17.824 159.931 17.824C161.162 17.824 162.174 17.388 162.966 16.516C163.766 15.636 164.166 14.34 164.166 12.628C164.166 10.908 163.77 9.612 162.979 8.74C162.186 7.868 161.17 7.432 159.931 7.432C159.186 7.432 158.494 7.612 157.854 7.972C157.222 8.332 156.71 8.812 156.318 9.412C155.934 10.012 155.742 10.676 155.742 11.404L154.638 11.368C154.638 10.36 154.89 9.456 155.394 8.656C155.906 7.856 156.578 7.228 157.41 6.772C158.242 6.308 159.146 6.076 160.122 6.076C161.154 6.076 162.09 6.332 162.931 6.844C163.778 7.348 164.45 8.088 164.946 9.064C165.443 10.04 165.691 11.228 165.691 12.628C165.691 14.044 165.443 15.244 164.946 16.228C164.458 17.212 163.794 17.96 162.954 18.472C162.114 18.976 161.17 19.228 160.122 19.228ZM154.242 19V0.243999H155.742V19H154.242Z" fill="#777777"/>
</svg>
