<svg width="183" height="30" viewBox="0 0 183 30" fill="none" xmlns="http://www.w3.org/2000/svg">
<path d="M11.4687 2.45C13.3287 2.45 14.8527 2.708 16.0407 3.224C17.2407 3.74 18.1287 4.484 18.7047 5.456C19.2807 6.416 19.5687 7.55 19.5687 8.858C19.5687 10.166 19.3107 11.282 18.7947 12.206C18.2787 13.118 17.6247 13.826 16.8327 14.33C16.0407 14.822 15.2367 15.098 14.4207 15.158C15.2727 15.182 16.1487 15.404 17.0487 15.824C17.9487 16.232 18.7047 16.898 19.3167 17.822C19.9287 18.734 20.2347 19.952 20.2347 21.476C20.2347 22.916 19.9407 24.206 19.3527 25.346C18.7767 26.474 17.8467 27.368 16.5627 28.028C15.2787 28.676 13.5627 29 11.4147 29H0.974748V2.45H11.4687ZM6.32075 14.744L4.46675 13.178H9.75875C11.1747 13.178 12.2367 12.878 12.9447 12.278C13.6527 11.666 14.0067 10.844 14.0067 9.812C14.0067 9.116 13.8567 8.546 13.5567 8.102C13.2567 7.646 12.8127 7.31 12.2247 7.094C11.6367 6.878 10.9107 6.77 10.0467 6.77H3.80075L6.32075 4.106V14.744ZM10.3347 24.662C11.7027 24.662 12.7407 24.35 13.4487 23.726C14.1687 23.09 14.5287 22.232 14.5287 21.152C14.5287 20.54 14.4207 20.006 14.2047 19.55C14.0007 19.094 13.7067 18.716 13.3227 18.416C12.9387 18.104 12.4707 17.87 11.9187 17.714C11.3787 17.546 10.7787 17.462 10.1187 17.462H4.46675L6.32075 15.914V27.326L3.80075 24.662H10.3347ZM23.8212 21.116V17.426H36.4932L35.9532 18.362C35.9532 18.266 35.9532 18.176 35.9532 18.092C35.9532 17.996 35.9532 17.906 35.9532 17.822C35.9532 17.138 35.7912 16.484 35.4672 15.86C35.1432 15.224 34.6392 14.708 33.9552 14.312C33.2832 13.904 32.4192 13.7 31.3632 13.7C30.3072 13.7 29.3952 13.928 28.6272 14.384C27.8712 14.828 27.2892 15.47 26.8812 16.31C26.4852 17.15 26.2872 18.164 26.2872 19.352C26.2872 20.576 26.4792 21.626 26.8632 22.502C27.2592 23.366 27.8412 24.032 28.6092 24.5C29.3892 24.968 30.3552 25.202 31.5072 25.202C32.2512 25.202 32.8932 25.136 33.4332 25.004C33.9732 24.86 34.4112 24.68 34.7472 24.464C35.0952 24.248 35.3592 24.008 35.5392 23.744C35.7192 23.48 35.8272 23.222 35.8632 22.97H41.3712C41.2992 23.774 41.0232 24.566 40.5432 25.346C40.0632 26.114 39.3972 26.81 38.5452 27.434C37.6932 28.046 36.6552 28.532 35.4312 28.892C34.2192 29.252 32.8332 29.432 31.2732 29.432C29.1612 29.432 27.3192 29.012 25.7472 28.172C24.1752 27.32 22.9572 26.15 22.0932 24.662C21.2292 23.162 20.7972 21.434 20.7972 19.478C20.7972 17.498 21.2352 15.764 22.1112 14.276C22.9992 12.776 24.2292 11.612 25.8012 10.784C27.3852 9.944 29.2152 9.524 31.2912 9.524C33.4152 9.524 35.2512 9.95 36.7992 10.802C38.3472 11.642 39.5412 12.824 40.3812 14.348C41.2212 15.86 41.6412 17.624 41.6412 19.64C41.6412 19.94 41.6352 20.228 41.6232 20.504C41.6112 20.78 41.5932 20.984 41.5692 21.116H23.8212ZM54.7225 29V21.602C54.7225 20.894 54.7225 20.282 54.7225 19.766C54.7225 19.238 54.7225 18.8 54.7225 18.452C54.7225 17.96 54.6925 17.474 54.6325 16.994C54.5845 16.514 54.4645 16.07 54.2725 15.662C54.0925 15.242 53.8105 14.912 53.4265 14.672C53.0425 14.42 52.5205 14.294 51.8605 14.294C51.2485 14.294 50.7205 14.426 50.2765 14.69C49.8325 14.942 49.4665 15.296 49.1785 15.752C48.9025 16.196 48.6985 16.712 48.5665 17.3C48.4345 17.876 48.3685 18.482 48.3685 19.118L46.8385 17.858C46.8385 16.238 47.1325 14.804 47.7205 13.556C48.3085 12.296 49.1425 11.312 50.2225 10.604C51.3145 9.884 52.6045 9.524 54.0925 9.524C55.6885 9.524 56.9305 9.866 57.8185 10.55C58.7185 11.222 59.3485 12.122 59.7085 13.25C60.0805 14.366 60.2665 15.602 60.2665 16.958C60.2665 17.474 60.2665 18.17 60.2665 19.046C60.2665 19.922 60.2665 20.972 60.2665 22.196V29H54.7225ZM42.7885 29V9.884H48.3685V29H42.7885ZM66.6025 29V21.62C66.6025 20.888 66.6025 20.258 66.6025 19.73C66.6025 19.202 66.6025 18.764 66.6025 18.416C66.6025 17.888 66.5725 17.384 66.5125 16.904C66.4525 16.412 66.3265 15.968 66.1345 15.572C65.9425 15.176 65.6545 14.864 65.2705 14.636C64.8865 14.408 64.3645 14.294 63.7045 14.294C63.0925 14.294 62.5645 14.426 62.1205 14.69C61.6885 14.942 61.3345 15.29 61.0585 15.734C60.7825 16.178 60.5785 16.682 60.4465 17.246C60.3265 17.81 60.2665 18.398 60.2665 19.01L58.7365 17.768C58.7365 16.172 59.0245 14.756 59.6005 13.52C60.1885 12.284 61.0165 11.312 62.0845 10.604C63.1645 9.884 64.4545 9.524 65.9545 9.524C67.5145 9.524 68.7445 9.854 69.6445 10.514C70.5565 11.174 71.2045 12.056 71.5885 13.16C71.9845 14.252 72.1825 15.476 72.1825 16.832C72.1825 17.372 72.1825 18.068 72.1825 18.92C72.1825 19.772 72.1825 20.81 72.1825 22.034V29H66.6025ZM73.1947 20.522V17.102H86.3167V20.522H73.1947ZM105.862 9.884L100.066 29H92.5416L86.6196 9.884H92.3796L96.7356 27.308H95.8716L100.084 9.884H105.862ZM105.97 29V9.884H111.496V29H105.97ZM108.724 6.77C107.86 6.77 107.104 6.542 106.456 6.086C105.82 5.63 105.502 4.988 105.502 4.16C105.502 3.32 105.82 2.672 106.456 2.216C107.104 1.76 107.86 1.532 108.724 1.532C109.6 1.532 110.356 1.76 110.992 2.216C111.64 2.672 111.964 3.32 111.964 4.16C111.964 5 111.64 5.648 110.992 6.104C110.356 6.548 109.6 6.77 108.724 6.77ZM126.732 29V20.882C126.732 20.426 126.732 20.012 126.732 19.64C126.732 19.268 126.732 18.932 126.732 18.632C126.732 17.84 126.63 17.12 126.426 16.472C126.222 15.812 125.856 15.284 125.328 14.888C124.8 14.492 124.038 14.294 123.042 14.294C122.178 14.294 121.428 14.492 120.792 14.888C120.168 15.284 119.688 15.836 119.352 16.544C119.016 17.252 118.848 18.068 118.848 18.992L117.3 17.876C117.3 16.22 117.66 14.768 118.38 13.52C119.1 12.272 120.072 11.294 121.296 10.586C122.532 9.878 123.9 9.524 125.4 9.524C126.972 9.524 128.262 9.842 129.27 10.478C130.29 11.102 131.046 11.978 131.538 13.106C132.042 14.222 132.294 15.53 132.294 17.03C132.294 17.642 132.294 18.326 132.294 19.082C132.294 19.838 132.294 20.612 132.294 21.404V29H126.732ZM113.268 29V9.884H118.848V29H113.268ZM142.123 29.432C140.527 29.432 139.057 29.054 137.713 28.298C136.369 27.53 135.289 26.396 134.473 24.896C133.657 23.396 133.249 21.548 133.249 19.352C133.249 17.252 133.663 15.47 134.491 14.006C135.331 12.542 136.423 11.432 137.767 10.676C139.123 9.908 140.575 9.524 142.123 9.524C143.635 9.524 145.015 9.908 146.263 10.676C147.523 11.444 148.531 12.494 149.287 13.826C150.043 15.146 150.421 16.67 150.421 18.398C150.421 18.458 150.421 18.518 150.421 18.578C150.421 18.626 150.421 18.68 150.421 18.74L148.009 18.776C148.009 18.74 148.009 18.704 148.009 18.668C148.009 18.62 148.009 18.578 148.009 18.542C148.009 17.642 147.793 16.868 147.361 16.22C146.929 15.572 146.371 15.074 145.687 14.726C145.003 14.366 144.289 14.186 143.545 14.186C142.309 14.186 141.241 14.6 140.341 15.428C139.441 16.244 138.991 17.552 138.991 19.352C138.991 21.152 139.441 22.478 140.341 23.33C141.253 24.17 142.321 24.59 143.545 24.59C144.313 24.59 145.039 24.41 145.723 24.05C146.407 23.678 146.959 23.156 147.379 22.484C147.799 21.812 148.009 21.02 148.009 20.108L150.421 20.234C150.421 21.95 150.049 23.504 149.305 24.896C148.573 26.276 147.577 27.38 146.317 28.208C145.069 29.024 143.671 29.432 142.123 29.432ZM148.009 29V0.865999H153.607V29H148.009ZM165.098 29.414C163.034 29.414 161.216 28.988 159.644 28.136C158.072 27.284 156.842 26.114 155.954 24.626C155.078 23.126 154.64 21.398 154.64 19.442C154.64 17.498 155.078 15.782 155.954 14.294C156.842 12.794 158.072 11.63 159.644 10.802C161.216 9.962 163.034 9.542 165.098 9.542C167.162 9.542 168.98 9.962 170.552 10.802C172.124 11.63 173.348 12.794 174.224 14.294C175.112 15.782 175.556 17.498 175.556 19.442C175.556 21.398 175.112 23.126 174.224 24.626C173.348 26.114 172.124 27.284 170.552 28.136C168.98 28.988 167.162 29.414 165.098 29.414ZM165.098 24.986C166.07 24.986 166.916 24.758 167.636 24.302C168.356 23.846 168.914 23.204 169.31 22.376C169.706 21.536 169.904 20.558 169.904 19.442C169.904 18.326 169.706 17.36 169.31 16.544C168.914 15.716 168.356 15.08 167.636 14.636C166.916 14.192 166.07 13.97 165.098 13.97C164.138 13.97 163.292 14.192 162.56 14.636C161.84 15.08 161.282 15.716 160.886 16.544C160.49 17.36 160.292 18.326 160.292 19.442C160.292 20.558 160.49 21.536 160.886 22.376C161.282 23.204 161.84 23.846 162.56 24.302C163.292 24.758 164.138 24.986 165.098 24.986Z" fill="#081B4E"/>
<path d="M179.779 29.54C178.951 29.54 178.249 29.252 177.673 28.676C177.097 28.1 176.809 27.398 176.809 26.57C176.809 25.754 177.097 25.058 177.673 24.482C178.249 23.906 178.951 23.618 179.779 23.618C180.595 23.618 181.291 23.906 181.867 24.482C182.443 25.058 182.731 25.754 182.731 26.57C182.731 27.398 182.443 28.1 181.867 28.676C181.291 29.252 180.595 29.54 179.779 29.54Z" fill="#F43724"/>
</svg>
