<svg width="288" height="37" viewBox="0 0 288 37" fill="none" xmlns="http://www.w3.org/2000/svg">
<path d="M0.553819 29V2.45H11.3178C14.1018 2.45 16.1778 3.086 17.5458 4.358C18.9258 5.618 19.6158 7.436 19.6158 9.812C19.6158 11.18 19.3518 12.35 18.8238 13.322C18.3078 14.282 17.6658 15.026 16.8978 15.554C16.1418 16.082 15.4098 16.376 14.7018 16.436C15.4338 16.484 16.1238 16.67 16.7718 16.994C17.4318 17.306 17.9718 17.804 18.3918 18.488C18.8118 19.172 19.0218 20.09 19.0218 21.242C19.0218 22.094 19.0218 22.934 19.0218 23.762C19.0218 24.59 19.0218 25.436 19.0218 26.3C19.0218 26.888 19.0638 27.434 19.1478 27.938C19.2438 28.43 19.3818 28.784 19.5618 29H13.9638C13.8078 28.76 13.6818 28.4 13.5858 27.92C13.4898 27.428 13.4418 26.888 13.4418 26.3C13.4418 25.532 13.4418 24.8 13.4418 24.104C13.4418 23.396 13.4418 22.658 13.4418 21.89C13.4418 20.846 13.1718 20.042 12.6318 19.478C12.0918 18.902 11.2278 18.614 10.0398 18.614H4.53182L6.02582 16.832V29H0.553819ZM6.02582 16.328L4.53182 14.294H10.1118C10.8318 14.294 11.4738 14.132 12.0378 13.808C12.6018 13.484 13.0458 13.022 13.3698 12.422C13.7058 11.822 13.8738 11.12 13.8738 10.316C13.8738 9.188 13.5318 8.312 12.8478 7.688C12.1758 7.064 11.2278 6.752 10.0038 6.752H4.40582L6.02582 4.934V16.328ZM22.9784 21.116V17.426H35.6504L35.1104 18.362C35.1104 18.266 35.1104 18.176 35.1104 18.092C35.1104 17.996 35.1104 17.906 35.1104 17.822C35.1104 17.138 34.9484 16.484 34.6244 15.86C34.3004 15.224 33.7964 14.708 33.1124 14.312C32.4404 13.904 31.5764 13.7 30.5204 13.7C29.4644 13.7 28.5524 13.928 27.7844 14.384C27.0284 14.828 26.4464 15.47 26.0384 16.31C25.6424 17.15 25.4444 18.164 25.4444 19.352C25.4444 20.576 25.6364 21.626 26.0204 22.502C26.4164 23.366 26.9984 24.032 27.7664 24.5C28.5464 24.968 29.5124 25.202 30.6644 25.202C31.4084 25.202 32.0504 25.136 32.5904 25.004C33.1304 24.86 33.5684 24.68 33.9044 24.464C34.2524 24.248 34.5164 24.008 34.6964 23.744C34.8764 23.48 34.9844 23.222 35.0204 22.97H40.5284C40.4564 23.774 40.1804 24.566 39.7004 25.346C39.2204 26.114 38.5544 26.81 37.7024 27.434C36.8504 28.046 35.8124 28.532 34.5884 28.892C33.3764 29.252 31.9904 29.432 30.4304 29.432C28.3184 29.432 26.4764 29.012 24.9044 28.172C23.3324 27.32 22.1144 26.15 21.2504 24.662C20.3864 23.162 19.9544 21.434 19.9544 19.478C19.9544 17.498 20.3924 15.764 21.2684 14.276C22.1564 12.776 23.3864 11.612 24.9584 10.784C26.5424 9.944 28.3724 9.524 30.4484 9.524C32.5724 9.524 34.4084 9.95 35.9564 10.802C37.5044 11.642 38.6984 12.824 39.5384 14.348C40.3784 15.86 40.7984 17.624 40.7984 19.64C40.7984 19.94 40.7924 20.228 40.7804 20.504C40.7684 20.78 40.7504 20.984 40.7264 21.116H22.9784ZM51.5757 29.432C49.4757 29.432 47.6337 29.012 46.0497 28.172C44.4657 27.32 43.2357 26.138 42.3597 24.626C41.4957 23.114 41.0637 21.368 41.0637 19.388C41.0637 17.384 41.4957 15.65 42.3597 14.186C43.2357 12.71 44.4657 11.564 46.0497 10.748C47.6337 9.932 49.4757 9.524 51.5757 9.524C53.1477 9.524 54.5397 9.758 55.7517 10.226C56.9637 10.682 57.9777 11.288 58.7937 12.044C59.6097 12.8 60.2277 13.628 60.6477 14.528C61.0677 15.428 61.2777 16.322 61.2777 17.21C61.2777 17.222 61.2777 17.246 61.2777 17.282C61.2777 17.306 61.2777 17.33 61.2777 17.354H55.7517C55.7517 17.282 55.7457 17.216 55.7337 17.156C55.7337 17.084 55.7217 17.012 55.6977 16.94C55.6017 16.436 55.3917 15.962 55.0677 15.518C54.7437 15.074 54.2877 14.714 53.6997 14.438C53.1237 14.15 52.4037 14.006 51.5397 14.006C50.6157 14.006 49.7877 14.21 49.0557 14.618C48.3357 15.026 47.7657 15.632 47.3457 16.436C46.9257 17.228 46.7157 18.212 46.7157 19.388C46.7157 20.54 46.9257 21.536 47.3457 22.376C47.7657 23.204 48.3357 23.84 49.0557 24.284C49.7877 24.728 50.6157 24.95 51.5397 24.95C52.4877 24.95 53.2617 24.806 53.8617 24.518C54.4617 24.218 54.9117 23.822 55.2117 23.33C55.5117 22.826 55.6917 22.274 55.7517 21.674H61.2777C61.2777 22.562 61.0677 23.468 60.6477 24.392C60.2397 25.304 59.6277 26.138 58.8117 26.894C58.0077 27.65 56.9997 28.262 55.7877 28.73C54.5757 29.198 53.1717 29.432 51.5757 29.432ZM69.2081 29.36C67.8521 29.36 66.7361 29.144 65.8601 28.712C64.9841 28.268 64.2941 27.674 63.7901 26.93C63.2861 26.186 62.9321 25.358 62.7281 24.446C62.5241 23.534 62.4221 22.61 62.4221 21.674C62.4221 21.242 62.4221 20.786 62.4221 20.306C62.4221 19.826 62.4221 19.334 62.4221 18.83V9.884H68.0021V17.948C68.0021 18.356 68.0021 18.752 68.0021 19.136C68.0021 19.52 68.0021 19.874 68.0021 20.198C68.0021 21.002 68.0921 21.74 68.2721 22.412C68.4521 23.084 68.7821 23.624 69.2621 24.032C69.7541 24.44 70.4501 24.644 71.3501 24.644C72.2261 24.644 72.9701 24.398 73.5821 23.906C74.1941 23.402 74.6621 22.76 74.9861 21.98C75.3101 21.2 75.4721 20.396 75.4721 19.568L77.0381 20.846C77.0381 22.046 76.8521 23.162 76.4801 24.194C76.1201 25.226 75.6041 26.132 74.9321 26.912C74.2601 27.68 73.4381 28.28 72.4661 28.712C71.5061 29.144 70.4201 29.36 69.2081 29.36ZM75.4721 29V9.884H81.0521V29H75.4721ZM82.8985 36.866V9.884H88.4965V36.866H82.8985ZM94.4005 29.432C92.8885 29.432 91.5025 29.03 90.2425 28.226C88.9825 27.41 87.9745 26.318 87.2185 24.95C86.4625 23.57 86.0845 22.022 86.0845 20.306C86.0845 20.258 86.0845 20.216 86.0845 20.18C86.0845 20.132 86.0845 20.078 86.0845 20.018L88.4965 19.964C88.4965 20 88.4965 20.036 88.4965 20.072C88.4965 20.108 88.4965 20.144 88.4965 20.18C88.4965 21.068 88.7125 21.848 89.1445 22.52C89.5765 23.18 90.1345 23.69 90.8185 24.05C91.5025 24.41 92.2165 24.59 92.9605 24.59C94.1845 24.59 95.2465 24.17 96.1465 23.33C97.0585 22.478 97.5145 21.152 97.5145 19.352C97.5145 17.552 97.0645 16.244 96.1645 15.428C95.2645 14.6 94.1965 14.186 92.9605 14.186C92.2165 14.186 91.5025 14.366 90.8185 14.726C90.1345 15.074 89.5765 15.572 89.1445 16.22C88.7125 16.868 88.4965 17.642 88.4965 18.542L86.0845 18.398C86.0845 16.67 86.4625 15.146 87.2185 13.826C87.9745 12.494 88.9825 11.444 90.2425 10.676C91.5025 9.908 92.8885 9.524 94.4005 9.524C95.9485 9.524 97.3945 9.908 98.7385 10.676C100.082 11.432 101.168 12.542 101.996 14.006C102.836 15.47 103.256 17.252 103.256 19.352C103.256 21.548 102.848 23.396 102.032 24.896C101.216 26.396 100.136 27.53 98.7925 28.298C97.4485 29.054 95.9845 29.432 94.4005 29.432ZM106.536 21.116V17.426H119.208L118.668 18.362C118.668 18.266 118.668 18.176 118.668 18.092C118.668 17.996 118.668 17.906 118.668 17.822C118.668 17.138 118.506 16.484 118.182 15.86C117.858 15.224 117.354 14.708 116.67 14.312C115.998 13.904 115.134 13.7 114.078 13.7C113.022 13.7 112.11 13.928 111.342 14.384C110.586 14.828 110.004 15.47 109.596 16.31C109.2 17.15 109.002 18.164 109.002 19.352C109.002 20.576 109.194 21.626 109.578 22.502C109.974 23.366 110.556 24.032 111.324 24.5C112.104 24.968 113.07 25.202 114.222 25.202C114.966 25.202 115.608 25.136 116.148 25.004C116.688 24.86 117.126 24.68 117.462 24.464C117.81 24.248 118.074 24.008 118.254 23.744C118.434 23.48 118.542 23.222 118.578 22.97H124.086C124.014 23.774 123.738 24.566 123.258 25.346C122.778 26.114 122.112 26.81 121.26 27.434C120.408 28.046 119.37 28.532 118.146 28.892C116.934 29.252 115.548 29.432 113.988 29.432C111.876 29.432 110.034 29.012 108.462 28.172C106.89 27.32 105.672 26.15 104.808 24.662C103.944 23.162 103.512 21.434 103.512 19.478C103.512 17.498 103.95 15.764 104.826 14.276C105.714 12.776 106.944 11.612 108.516 10.784C110.1 9.944 111.93 9.524 114.006 9.524C116.13 9.524 117.966 9.95 119.514 10.802C121.062 11.642 122.256 12.824 123.096 14.348C123.936 15.86 124.356 17.624 124.356 19.64C124.356 19.94 124.35 20.228 124.338 20.504C124.326 20.78 124.308 20.984 124.284 21.116H106.536ZM125.504 29V9.884H131.102V16.472L129.95 15.752C130.082 14.852 130.322 14.024 130.67 13.268C131.018 12.512 131.468 11.858 132.02 11.306C132.572 10.742 133.226 10.304 133.982 9.992C134.75 9.68 135.626 9.524 136.61 9.524C137.378 9.524 137.978 9.584 138.41 9.704C138.854 9.812 139.13 9.896 139.238 9.956L138.32 14.96C138.212 14.9 137.972 14.804 137.6 14.672C137.228 14.54 136.748 14.474 136.16 14.474C135.2 14.474 134.396 14.636 133.748 14.96C133.1 15.284 132.578 15.716 132.182 16.256C131.798 16.784 131.522 17.372 131.354 18.02C131.186 18.668 131.102 19.322 131.102 19.982V29H125.504ZM145.851 29.396C144.459 29.396 143.217 29.174 142.125 28.73C141.045 28.286 140.199 27.644 139.587 26.804C138.975 25.964 138.669 24.944 138.669 23.744C138.669 22.388 139.041 21.284 139.785 20.432C140.529 19.58 141.513 18.932 142.737 18.488C143.973 18.032 145.311 17.732 146.751 17.588C148.851 17.384 150.297 17.198 151.089 17.03C151.893 16.862 152.295 16.568 152.295 16.148C152.295 16.136 152.295 16.124 152.295 16.112C152.295 15.404 151.953 14.846 151.269 14.438C150.597 14.03 149.655 13.826 148.443 13.826C147.159 13.826 146.175 14.06 145.491 14.528C144.819 14.984 144.483 15.686 144.483 16.634H138.993C138.993 15.098 139.407 13.802 140.235 12.746C141.075 11.69 142.209 10.892 143.637 10.352C145.065 9.8 146.679 9.524 148.479 9.524C150.159 9.524 151.713 9.782 153.141 10.298C154.569 10.802 155.715 11.564 156.579 12.584C157.455 13.604 157.893 14.9 157.893 16.472C157.893 16.724 157.893 16.976 157.893 17.228C157.893 17.468 157.893 17.714 157.893 17.966V24.734C157.893 25.226 157.905 25.7 157.929 26.156C157.965 26.6 158.037 27.008 158.145 27.38C158.265 27.8 158.415 28.148 158.595 28.424C158.775 28.7 158.925 28.892 159.045 29H153.555C153.471 28.916 153.339 28.742 153.159 28.478C152.991 28.214 152.847 27.908 152.727 27.56C152.583 27.14 152.475 26.72 152.403 26.3C152.343 25.868 152.313 25.364 152.313 24.788L153.465 25.58C153.129 26.372 152.583 27.056 151.827 27.632C151.083 28.196 150.195 28.634 149.163 28.946C148.143 29.246 147.039 29.396 145.851 29.396ZM147.345 25.22C148.221 25.22 149.037 25.064 149.793 24.752C150.561 24.428 151.185 23.924 151.665 23.24C152.145 22.556 152.385 21.662 152.385 20.558V18.632L153.771 19.982C152.979 20.27 152.061 20.51 151.017 20.702C149.985 20.882 148.953 21.026 147.921 21.134C146.697 21.254 145.779 21.464 145.167 21.764C144.567 22.052 144.267 22.544 144.267 23.24C144.267 23.9 144.525 24.398 145.041 24.734C145.557 25.058 146.325 25.22 147.345 25.22ZM159.636 29V9.884H165.234V16.472L164.082 15.752C164.214 14.852 164.454 14.024 164.802 13.268C165.15 12.512 165.6 11.858 166.152 11.306C166.704 10.742 167.358 10.304 168.114 9.992C168.882 9.68 169.758 9.524 170.742 9.524C171.51 9.524 172.11 9.584 172.542 9.704C172.986 9.812 173.262 9.896 173.37 9.956L172.452 14.96C172.344 14.9 172.104 14.804 171.732 14.672C171.36 14.54 170.88 14.474 170.292 14.474C169.332 14.474 168.528 14.636 167.88 14.96C167.232 15.284 166.71 15.716 166.314 16.256C165.93 16.784 165.654 17.372 165.486 18.02C165.318 18.668 165.234 19.322 165.234 19.982V29H159.636ZM188.576 29.432C187.436 29.432 186.338 29.3 185.282 29.036C184.226 28.772 183.278 28.382 182.438 27.866C181.61 27.35 180.95 26.708 180.458 25.94C179.978 25.16 179.738 24.254 179.738 23.222C179.738 23.174 179.738 23.12 179.738 23.06C179.738 22.988 179.738 22.934 179.738 22.898H185.282C185.282 22.934 185.282 22.976 185.282 23.024C185.282 23.06 185.282 23.102 185.282 23.15C185.282 23.846 185.588 24.356 186.2 24.68C186.824 25.004 187.664 25.166 188.72 25.166C189.272 25.166 189.8 25.112 190.304 25.004C190.82 24.884 191.24 24.698 191.564 24.446C191.9 24.182 192.068 23.852 192.068 23.456C192.068 22.82 191.714 22.37 191.006 22.106C190.31 21.842 189.188 21.578 187.64 21.314C186.764 21.17 185.876 20.966 184.976 20.702C184.076 20.438 183.248 20.09 182.492 19.658C181.736 19.214 181.13 18.656 180.674 17.984C180.218 17.3 179.99 16.472 179.99 15.5C179.99 14.204 180.38 13.112 181.16 12.224C181.952 11.336 183.002 10.664 184.31 10.208C185.618 9.752 187.058 9.524 188.63 9.524C190.13 9.524 191.528 9.776 192.824 10.28C194.12 10.772 195.17 11.486 195.974 12.422C196.778 13.346 197.18 14.462 197.18 15.77C197.18 15.794 197.18 15.83 197.18 15.878C197.18 15.926 197.18 15.974 197.18 16.022H191.69C191.69 15.974 191.69 15.932 191.69 15.896C191.69 15.86 191.69 15.83 191.69 15.806C191.69 15.326 191.534 14.936 191.222 14.636C190.922 14.336 190.538 14.114 190.07 13.97C189.602 13.814 189.116 13.736 188.612 13.736C188.156 13.736 187.682 13.79 187.19 13.898C186.71 13.994 186.302 14.162 185.966 14.402C185.63 14.63 185.462 14.954 185.462 15.374C185.462 15.782 185.642 16.118 186.002 16.382C186.362 16.634 186.866 16.844 187.514 17.012C188.162 17.168 188.912 17.318 189.764 17.462C190.568 17.594 191.414 17.78 192.302 18.02C193.202 18.248 194.042 18.578 194.822 19.01C195.614 19.43 196.25 19.988 196.73 20.684C197.222 21.368 197.468 22.238 197.468 23.294C197.468 24.386 197.216 25.322 196.712 26.102C196.208 26.882 195.524 27.518 194.66 28.01C193.808 28.49 192.854 28.844 191.798 29.072C190.754 29.312 189.68 29.432 188.576 29.432ZM200.743 21.116V17.426H213.415L212.875 18.362C212.875 18.266 212.875 18.176 212.875 18.092C212.875 17.996 212.875 17.906 212.875 17.822C212.875 17.138 212.713 16.484 212.389 15.86C212.065 15.224 211.561 14.708 210.877 14.312C210.205 13.904 209.341 13.7 208.285 13.7C207.229 13.7 206.317 13.928 205.549 14.384C204.793 14.828 204.211 15.47 203.803 16.31C203.407 17.15 203.209 18.164 203.209 19.352C203.209 20.576 203.401 21.626 203.785 22.502C204.181 23.366 204.763 24.032 205.531 24.5C206.311 24.968 207.277 25.202 208.429 25.202C209.173 25.202 209.815 25.136 210.355 25.004C210.895 24.86 211.333 24.68 211.669 24.464C212.017 24.248 212.281 24.008 212.461 23.744C212.641 23.48 212.749 23.222 212.785 22.97H218.293C218.221 23.774 217.945 24.566 217.465 25.346C216.985 26.114 216.319 26.81 215.467 27.434C214.615 28.046 213.577 28.532 212.353 28.892C211.141 29.252 209.755 29.432 208.195 29.432C206.083 29.432 204.241 29.012 202.669 28.172C201.097 27.32 199.879 26.15 199.015 24.662C198.151 23.162 197.719 21.434 197.719 19.478C197.719 17.498 198.157 15.764 199.033 14.276C199.921 12.776 201.151 11.612 202.723 10.784C204.307 9.944 206.137 9.524 208.213 9.524C210.337 9.524 212.173 9.95 213.721 10.802C215.269 11.642 216.463 12.824 217.303 14.348C218.143 15.86 218.563 17.624 218.563 19.64C218.563 19.94 218.557 20.228 218.545 20.504C218.533 20.78 218.515 20.984 218.491 21.116H200.743ZM233.174 29V20.882C233.174 20.426 233.174 20.012 233.174 19.64C233.174 19.268 233.174 18.932 233.174 18.632C233.174 17.84 233.072 17.12 232.868 16.472C232.664 15.812 232.298 15.284 231.77 14.888C231.242 14.492 230.48 14.294 229.484 14.294C228.62 14.294 227.87 14.492 227.234 14.888C226.61 15.284 226.13 15.836 225.794 16.544C225.458 17.252 225.29 18.068 225.29 18.992L223.742 17.876C223.742 16.22 224.102 14.768 224.822 13.52C225.542 12.272 226.514 11.294 227.738 10.586C228.974 9.878 230.342 9.524 231.842 9.524C233.414 9.524 234.704 9.842 235.712 10.478C236.732 11.102 237.488 11.978 237.98 13.106C238.484 14.222 238.736 15.53 238.736 17.03C238.736 17.642 238.736 18.326 238.736 19.082C238.736 19.838 238.736 20.612 238.736 21.404V29H233.174ZM219.71 29V9.884H225.29V29H219.71ZM254.037 29V22.196C254.037 21.956 254.037 21.626 254.037 21.206C254.037 20.786 254.037 20.36 254.037 19.928C254.037 19.496 254.037 19.148 254.037 18.884C254.037 17.42 253.773 16.292 253.245 15.5C252.717 14.696 251.751 14.294 250.347 14.294C249.435 14.294 248.667 14.48 248.043 14.852C247.419 15.212 246.945 15.722 246.621 16.382C246.309 17.042 246.153 17.816 246.153 18.704L244.533 17.588C244.533 15.992 244.875 14.594 245.559 13.394C246.243 12.182 247.185 11.234 248.385 10.55C249.597 9.866 250.995 9.524 252.579 9.524C254.919 9.524 256.677 10.214 257.853 11.594C259.029 12.962 259.617 14.87 259.617 17.318C259.617 17.942 259.617 18.692 259.617 19.568C259.617 20.444 259.617 21.458 259.617 22.61V29H254.037ZM240.573 29V0.865999H246.153V29H240.573ZM267.916 29.396C266.524 29.396 265.282 29.174 264.19 28.73C263.11 28.286 262.264 27.644 261.652 26.804C261.04 25.964 260.734 24.944 260.734 23.744C260.734 22.388 261.106 21.284 261.85 20.432C262.594 19.58 263.578 18.932 264.802 18.488C266.038 18.032 267.376 17.732 268.816 17.588C270.916 17.384 272.362 17.198 273.154 17.03C273.958 16.862 274.36 16.568 274.36 16.148C274.36 16.136 274.36 16.124 274.36 16.112C274.36 15.404 274.018 14.846 273.334 14.438C272.662 14.03 271.72 13.826 270.508 13.826C269.224 13.826 268.24 14.06 267.556 14.528C266.884 14.984 266.548 15.686 266.548 16.634H261.058C261.058 15.098 261.472 13.802 262.3 12.746C263.14 11.69 264.274 10.892 265.702 10.352C267.13 9.8 268.744 9.524 270.544 9.524C272.224 9.524 273.778 9.782 275.206 10.298C276.634 10.802 277.78 11.564 278.644 12.584C279.52 13.604 279.958 14.9 279.958 16.472C279.958 16.724 279.958 16.976 279.958 17.228C279.958 17.468 279.958 17.714 279.958 17.966V24.734C279.958 25.226 279.97 25.7 279.994 26.156C280.03 26.6 280.102 27.008 280.21 27.38C280.33 27.8 280.48 28.148 280.66 28.424C280.84 28.7 280.99 28.892 281.11 29H275.62C275.536 28.916 275.404 28.742 275.224 28.478C275.056 28.214 274.912 27.908 274.792 27.56C274.648 27.14 274.54 26.72 274.468 26.3C274.408 25.868 274.378 25.364 274.378 24.788L275.53 25.58C275.194 26.372 274.648 27.056 273.892 27.632C273.148 28.196 272.26 28.634 271.228 28.946C270.208 29.246 269.104 29.396 267.916 29.396ZM269.41 25.22C270.286 25.22 271.102 25.064 271.858 24.752C272.626 24.428 273.25 23.924 273.73 23.24C274.21 22.556 274.45 21.662 274.45 20.558V18.632L275.836 19.982C275.044 20.27 274.126 20.51 273.082 20.702C272.05 20.882 271.018 21.026 269.986 21.134C268.762 21.254 267.844 21.464 267.232 21.764C266.632 22.052 266.332 22.544 266.332 23.24C266.332 23.9 266.59 24.398 267.106 24.734C267.622 25.058 268.39 25.22 269.41 25.22Z" fill="#081B4E"/>
<path d="M284.779 29.54C283.951 29.54 283.249 29.252 282.673 28.676C282.097 28.1 281.809 27.398 281.809 26.57C281.809 25.754 282.097 25.058 282.673 24.482C283.249 23.906 283.951 23.618 284.779 23.618C285.595 23.618 286.291 23.906 286.867 24.482C287.443 25.058 287.731 25.754 287.731 26.57C287.731 27.398 287.443 28.1 286.867 28.676C286.291 29.252 285.595 29.54 284.779 29.54Z" fill="#F21A05"/>
</svg>
