<svg width="205" height="39" viewBox="0 0 205 39" fill="none" xmlns="http://www.w3.org/2000/svg">
<path d="M18.98 7.77H10.214L12.446 5.106V30H6.88403V5.106L9.18803 7.77H0.368033V3.45H18.98V7.77ZM24.3837 30.36C23.0277 30.36 21.9117 30.144 21.0357 29.712C20.1597 29.268 19.4697 28.674 18.9657 27.93C18.4617 27.186 18.1077 26.358 17.9037 25.446C17.6997 24.534 17.5977 23.61 17.5977 22.674C17.5977 22.242 17.5977 21.786 17.5977 21.306C17.5977 20.826 17.5977 20.334 17.5977 19.83V10.884H23.1777V18.948C23.1777 19.356 23.1777 19.752 23.1777 20.136C23.1777 20.52 23.1777 20.874 23.1777 21.198C23.1777 22.002 23.2677 22.74 23.4477 23.412C23.6277 24.084 23.9577 24.624 24.4377 25.032C24.9297 25.44 25.6257 25.644 26.5257 25.644C27.4017 25.644 28.1457 25.398 28.7577 24.906C29.3697 24.402 29.8377 23.76 30.1617 22.98C30.4857 22.2 30.6477 21.396 30.6477 20.568L32.2137 21.846C32.2137 23.046 32.0277 24.162 31.6557 25.194C31.2957 26.226 30.7797 27.132 30.1077 27.912C29.4357 28.68 28.6137 29.28 27.6417 29.712C26.6817 30.144 25.5957 30.36 24.3837 30.36ZM30.6477 30V10.884H36.2277V30H30.6477ZM46.0661 30.432C44.4701 30.432 43.0001 30.054 41.6561 29.298C40.3121 28.53 39.2321 27.396 38.4161 25.896C37.6001 24.396 37.1921 22.548 37.1921 20.352C37.1921 18.252 37.6061 16.47 38.4341 15.006C39.2741 13.542 40.3661 12.432 41.7101 11.676C43.0661 10.908 44.5181 10.524 46.0661 10.524C47.5781 10.524 48.9581 10.908 50.2061 11.676C51.4661 12.444 52.4741 13.494 53.2301 14.826C53.9861 16.146 54.3641 17.67 54.3641 19.398C54.3641 19.458 54.3641 19.518 54.3641 19.578C54.3641 19.626 54.3641 19.68 54.3641 19.74L51.9521 19.776C51.9521 19.74 51.9521 19.704 51.9521 19.668C51.9521 19.62 51.9521 19.578 51.9521 19.542C51.9521 18.642 51.7361 17.868 51.3041 17.22C50.8721 16.572 50.3141 16.074 49.6301 15.726C48.9461 15.366 48.2321 15.186 47.4881 15.186C46.2521 15.186 45.1841 15.6 44.2841 16.428C43.3841 17.244 42.9341 18.552 42.9341 20.352C42.9341 22.152 43.3841 23.478 44.2841 24.33C45.1961 25.17 46.2641 25.59 47.4881 25.59C48.2561 25.59 48.9821 25.41 49.6661 25.05C50.3501 24.678 50.9021 24.156 51.3221 23.484C51.7421 22.812 51.9521 22.02 51.9521 21.108L54.3641 21.234C54.3641 22.95 53.9921 24.504 53.2481 25.896C52.5161 27.276 51.5201 28.38 50.2601 29.208C49.0121 30.024 47.6141 30.432 46.0661 30.432ZM51.9521 30V1.866H57.5501V30H51.9521ZM69.0406 30.414C66.9766 30.414 65.1586 29.988 63.5866 29.136C62.0146 28.284 60.7846 27.114 59.8966 25.626C59.0206 24.126 58.5826 22.398 58.5826 20.442C58.5826 18.498 59.0206 16.782 59.8966 15.294C60.7846 13.794 62.0146 12.63 63.5866 11.802C65.1586 10.962 66.9766 10.542 69.0406 10.542C71.1046 10.542 72.9226 10.962 74.4946 11.802C76.0666 12.63 77.2906 13.794 78.1666 15.294C79.0546 16.782 79.4986 18.498 79.4986 20.442C79.4986 22.398 79.0546 24.126 78.1666 25.626C77.2906 27.114 76.0666 28.284 74.4946 29.136C72.9226 29.988 71.1046 30.414 69.0406 30.414ZM69.0406 25.986C70.0126 25.986 70.8586 25.758 71.5786 25.302C72.2986 24.846 72.8566 24.204 73.2526 23.376C73.6486 22.536 73.8466 21.558 73.8466 20.442C73.8466 19.326 73.6486 18.36 73.2526 17.544C72.8566 16.716 72.2986 16.08 71.5786 15.636C70.8586 15.192 70.0126 14.97 69.0406 14.97C68.0806 14.97 67.2346 15.192 66.5026 15.636C65.7826 16.08 65.2246 16.716 64.8286 17.544C64.4326 18.36 64.2346 19.326 64.2346 20.442C64.2346 21.558 64.4326 22.536 64.8286 23.376C65.2246 24.204 65.7826 24.846 66.5026 25.302C67.2346 25.758 68.0806 25.986 69.0406 25.986ZM97.0396 30.432C94.9396 30.432 93.0976 30.012 91.5136 29.172C89.9296 28.32 88.6996 27.138 87.8236 25.626C86.9596 24.114 86.5276 22.368 86.5276 20.388C86.5276 18.384 86.9596 16.65 87.8236 15.186C88.6996 13.71 89.9296 12.564 91.5136 11.748C93.0976 10.932 94.9396 10.524 97.0396 10.524C98.6116 10.524 100.004 10.758 101.216 11.226C102.428 11.682 103.442 12.288 104.258 13.044C105.074 13.8 105.692 14.628 106.112 15.528C106.532 16.428 106.742 17.322 106.742 18.21C106.742 18.222 106.742 18.246 106.742 18.282C106.742 18.306 106.742 18.33 106.742 18.354H101.216C101.216 18.282 101.21 18.216 101.198 18.156C101.198 18.084 101.186 18.012 101.162 17.94C101.066 17.436 100.856 16.962 100.532 16.518C100.208 16.074 99.7516 15.714 99.1636 15.438C98.5876 15.15 97.8676 15.006 97.0036 15.006C96.0796 15.006 95.2516 15.21 94.5196 15.618C93.7996 16.026 93.2296 16.632 92.8096 17.436C92.3896 18.228 92.1796 19.212 92.1796 20.388C92.1796 21.54 92.3896 22.536 92.8096 23.376C93.2296 24.204 93.7996 24.84 94.5196 25.284C95.2516 25.728 96.0796 25.95 97.0036 25.95C97.9516 25.95 98.7256 25.806 99.3256 25.518C99.9256 25.218 100.376 24.822 100.676 24.33C100.976 23.826 101.156 23.274 101.216 22.674H106.742C106.742 23.562 106.532 24.468 106.112 25.392C105.704 26.304 105.092 27.138 104.276 27.894C103.472 28.65 102.464 29.262 101.252 29.73C100.04 30.198 98.6356 30.432 97.0396 30.432ZM110.028 22.116V18.426H122.7L122.16 19.362C122.16 19.266 122.16 19.176 122.16 19.092C122.16 18.996 122.16 18.906 122.16 18.822C122.16 18.138 121.998 17.484 121.674 16.86C121.35 16.224 120.846 15.708 120.162 15.312C119.49 14.904 118.626 14.7 117.57 14.7C116.514 14.7 115.602 14.928 114.834 15.384C114.078 15.828 113.496 16.47 113.088 17.31C112.692 18.15 112.494 19.164 112.494 20.352C112.494 21.576 112.686 22.626 113.07 23.502C113.466 24.366 114.048 25.032 114.816 25.5C115.596 25.968 116.562 26.202 117.714 26.202C118.458 26.202 119.1 26.136 119.64 26.004C120.18 25.86 120.618 25.68 120.954 25.464C121.302 25.248 121.566 25.008 121.746 24.744C121.926 24.48 122.034 24.222 122.07 23.97H127.578C127.506 24.774 127.23 25.566 126.75 26.346C126.27 27.114 125.604 27.81 124.752 28.434C123.9 29.046 122.862 29.532 121.638 29.892C120.426 30.252 119.04 30.432 117.48 30.432C115.368 30.432 113.526 30.012 111.954 29.172C110.382 28.32 109.164 27.15 108.3 25.662C107.436 24.162 107.004 22.434 107.004 20.478C107.004 18.498 107.442 16.764 108.318 15.276C109.206 13.776 110.436 12.612 112.008 11.784C113.592 10.944 115.422 10.524 117.498 10.524C119.622 10.524 121.458 10.95 123.006 11.802C124.554 12.642 125.748 13.824 126.588 15.348C127.428 16.86 127.848 18.624 127.848 20.64C127.848 20.94 127.842 21.228 127.83 21.504C127.818 21.78 127.8 21.984 127.776 22.116H110.028ZM128.995 30V10.884H134.593V17.472L133.441 16.752C133.573 15.852 133.813 15.024 134.161 14.268C134.509 13.512 134.959 12.858 135.511 12.306C136.063 11.742 136.717 11.304 137.473 10.992C138.241 10.68 139.117 10.524 140.101 10.524C140.869 10.524 141.469 10.584 141.901 10.704C142.345 10.812 142.621 10.896 142.729 10.956L141.811 15.96C141.703 15.9 141.463 15.804 141.091 15.672C140.719 15.54 140.239 15.474 139.651 15.474C138.691 15.474 137.887 15.636 137.239 15.96C136.591 16.284 136.069 16.716 135.673 17.256C135.289 17.784 135.013 18.372 134.845 19.02C134.677 19.668 134.593 20.322 134.593 20.982V30H128.995ZM152.61 30.396C151.878 30.396 151.122 30.33 150.342 30.198C149.574 30.078 148.854 29.832 148.182 29.46C147.522 29.076 146.988 28.518 146.58 27.786C146.172 27.054 145.968 26.088 145.968 24.888C145.968 24.624 145.968 24.354 145.968 24.078C145.968 23.802 145.968 23.526 145.968 23.25V15.204H141.558V10.884H142.8C143.52 10.884 144.09 10.854 144.51 10.794C144.942 10.734 145.26 10.584 145.464 10.344C145.68 10.092 145.818 9.702 145.878 9.174C145.938 8.646 145.968 7.92 145.968 6.996V4.584H151.566V10.884H157.128V15.204H151.566V22.08C151.566 22.296 151.566 22.506 151.566 22.71C151.566 22.914 151.566 23.112 151.566 23.304C151.566 24.132 151.662 24.804 151.854 25.32C152.058 25.836 152.556 26.094 153.348 26.094C153.744 26.094 154.116 26.058 154.464 25.986C154.824 25.914 155.094 25.842 155.274 25.77V29.964C155.022 30.072 154.668 30.168 154.212 30.252C153.756 30.348 153.222 30.396 152.61 30.396ZM167.29 30.414C165.226 30.414 163.408 29.988 161.836 29.136C160.264 28.284 159.034 27.114 158.146 25.626C157.27 24.126 156.832 22.398 156.832 20.442C156.832 18.498 157.27 16.782 158.146 15.294C159.034 13.794 160.264 12.63 161.836 11.802C163.408 10.962 165.226 10.542 167.29 10.542C169.354 10.542 171.172 10.962 172.744 11.802C174.316 12.63 175.54 13.794 176.416 15.294C177.304 16.782 177.748 18.498 177.748 20.442C177.748 22.398 177.304 24.126 176.416 25.626C175.54 27.114 174.316 28.284 172.744 29.136C171.172 29.988 169.354 30.414 167.29 30.414ZM167.29 25.986C168.262 25.986 169.108 25.758 169.828 25.302C170.548 24.846 171.106 24.204 171.502 23.376C171.898 22.536 172.096 21.558 172.096 20.442C172.096 19.326 171.898 18.36 171.502 17.544C171.106 16.716 170.548 16.08 169.828 15.636C169.108 15.192 168.262 14.97 167.29 14.97C166.33 14.97 165.484 15.192 164.752 15.636C164.032 16.08 163.474 16.716 163.078 17.544C162.682 18.36 162.484 19.326 162.484 20.442C162.484 21.558 162.682 22.536 163.078 23.376C163.474 24.204 164.032 24.846 164.752 25.302C165.484 25.758 166.33 25.986 167.29 25.986Z" fill="#081B4E"/>
<path d="M186.903 35.922L186.147 34.59C186.747 34.314 187.323 33.918 187.875 33.402C188.427 32.886 188.877 32.346 189.225 31.782C189.573 31.23 189.747 30.744 189.747 30.324C189.747 30.132 189.717 29.952 189.657 29.784C189.609 29.604 189.543 29.46 189.459 29.352H190.755C190.611 29.688 190.359 29.988 189.999 30.252C189.639 30.516 189.141 30.648 188.505 30.648C187.773 30.648 187.113 30.402 186.525 29.91C185.949 29.406 185.661 28.692 185.661 27.768C185.661 26.88 185.961 26.154 186.561 25.59C187.161 25.026 187.923 24.744 188.847 24.744C189.879 24.744 190.707 25.104 191.331 25.824C191.955 26.532 192.267 27.426 192.267 28.506C192.267 29.622 192.003 30.666 191.475 31.638C190.959 32.61 190.293 33.462 189.477 34.194C188.661 34.938 187.803 35.514 186.903 35.922ZM188.739 16.968C187.911 16.968 187.209 16.68 186.633 16.104C186.057 15.528 185.769 14.826 185.769 13.998C185.769 13.182 186.057 12.486 186.633 11.91C187.209 11.334 187.911 11.046 188.739 11.046C189.555 11.046 190.251 11.334 190.827 11.91C191.403 12.486 191.691 13.182 191.691 13.998C191.691 14.826 191.403 15.528 190.827 16.104C190.251 16.68 189.555 16.968 188.739 16.968ZM196.463 38.406L193.565 35.346C193.925 35.046 194.447 34.53 195.131 33.798C195.827 33.066 196.535 32.058 197.255 30.774C197.987 29.502 198.605 27.918 199.109 26.022C199.613 24.114 199.865 21.846 199.865 19.218C199.865 16.578 199.613 14.304 199.109 12.396C198.605 10.476 197.987 8.88 197.255 7.608C196.535 6.324 195.827 5.316 195.131 4.584C194.447 3.852 193.925 3.348 193.565 3.072L196.463 0.0119977C196.763 0.215999 197.231 0.599999 197.867 1.164C198.515 1.728 199.229 2.508 200.009 3.504C200.789 4.5 201.539 5.73 202.259 7.194C202.979 8.658 203.567 10.386 204.023 12.378C204.491 14.37 204.725 16.65 204.725 19.218C204.725 21.774 204.491 24.048 204.023 26.04C203.567 28.02 202.979 29.736 202.259 31.188C201.539 32.652 200.789 33.882 200.009 34.878C199.229 35.874 198.515 36.654 197.867 37.218C197.231 37.794 196.763 38.19 196.463 38.406Z" fill="#F21A05"/>
</svg>
